<?xml version="1.0" encoding="utf-8"?>
<!-- Generator: Adobe Illustrator 16.0.0, SVG Export Plug-In . SVG Version: 6.00 Build 0)  -->
<!DOCTYPE svg PUBLIC "-//W3C//DTD SVG 1.1//EN" "http://www.w3.org/Graphics/SVG/1.1/DTD/svg11.dtd">
<svg version="1.1" id="Layer_1" xmlns="http://www.w3.org/2000/svg" xmlns:xlink="http://www.w3.org/1999/xlink" x="0px" y="0px"
	 width="960px" height="200px" viewBox="0 0 960 200" enable-background="new 0 0 960 200" xml:space="preserve">
<line fill="none" stroke="#F4F1ED" stroke-width="4" stroke-miterlimit="10" stroke-dasharray="14,12" x1="767.949" y1="106.291" x2="675.25" y2="106.291"/>
<line fill="none" stroke="#F4F1ED" stroke-width="4" stroke-miterlimit="10" stroke-dasharray="14,12" x1="190.76" y1="105.334" x2="283.25" y2="105.334"/>
<g>
	<g>
		<g>
			<path fill="#F4F1ED" d="M160.462,65.287c-0.228,3.93-6.688,4.258-9.457,3.848c-5.62-0.833-8.279-5.289-7.962-10.695
				c0.113-1.934-2.887-1.922-3,0c-0.419,7.167,3.859,12.977,11.195,13.735c4.727,0.488,11.886-1.059,12.224-6.888
				C163.574,63.354,160.573,63.364,160.462,65.287L160.462,65.287z"/>
		</g>
	</g>
	<g>
		<g>
			<path fill="#F4F1ED" d="M110.594,99.114c0.265-6.614,4.07-12.875,9.488-16.657c0.56-0.391,0.875-1.004,0.689-1.694
				c-1.356-5.039,3.346-10.646,6.419-13.894c4.024-4.253,9.122-6.224,14.751-6.983c0.518-0.07,0.896-0.597,1.047-1.047
				c4.113-12.284,19.542-13.734,27.033-3.55c-0.612-0.833-0.156-0.028-0.156,1.084c0,1.821,0,3.642,0,5.463
				c0,13.988,0,27.977,0,41.965c0,14.413,0,28.826,0,43.239c0,2.942,0,5.885,0,8.828c0,2.706-3.888,4.582-5.891,5.426
				c-4.354,1.835-9.026,0.979-12.589-2.054c-0.767-0.652-1.459-0.357-2.329-0.132c-2.436,0.631-5.188,0.376-7.626-0.038
				c-7.35-1.245-13.703-6.886-15.466-14.126c-0.747-3.063,1.746-7.424-0.153-9.798c-0.327-0.409-0.984-0.509-1.459-0.386
				c-8.979,2.316-12.823-14.148-6.786-18.931c0.728-0.576,0.51-1.969-0.303-2.355C112.255,111.093,110.777,104.077,110.594,99.114
				c-0.071-1.929-3.071-1.936-3,0c0.22,5.98,2.17,14.104,8.153,16.951c-0.101-0.785-0.202-1.57-0.303-2.355
				c-6.417,5.082-4.631,17.376,1.648,21.832c2.118,1.503,4.745,2.571,7.392,2.234c1.078-0.137-0.728-1.772-1.131-0.489
				c-0.233,0.744-0.349,1.519-0.469,2.286c-0.325,2.078-0.151,4.111,0.187,6.17c1.69,10.312,12.802,16.496,22.428,16.71
				c1.457,0.032,2.93-0.163,4.355-0.451c0.671-0.136,2.849,1.917,3.964,2.295c5.232,1.774,10.412,0.786,15-2.208
				c3.621-2.362,4.047-5.431,4.047-9.199c0-4.948,0-9.896,0-14.845c0-15.664,0-31.328,0-46.992c0-9.739,0-19.478,0-29.216
				c0-2.206,0-4.413,0-6.619c0-2.343-2.536-4.168-4.164-5.536c-5.024-4.222-11.466-5.116-17.671-3.392
				c-2.943,0.817-5.432,2.684-7.426,4.936c-1.033,1.167-1.868,2.603-2.466,4.034c-0.808,1.933,0.624,1.592-1.274,1.856
				c-7.714,1.076-13.828,5.848-18.431,11.921c-2.454,3.238-4.678,8.35-3.555,12.523c0.229-0.565,0.459-1.129,0.689-1.694
				c-6.324,4.414-10.665,11.506-10.974,19.248C107.517,101.05,110.517,101.042,110.594,99.114z"/>
		</g>
	</g>
	<g>
		<g>
			<path fill="#F4F1ED" d="M169.866,89.407c-0.269,9.972-7.942,17.646-17.914,17.914c-1.931,0.052-1.936,3.052,0,3
				c11.622-0.312,20.601-9.292,20.914-20.914C172.918,87.472,169.917,87.477,169.866,89.407L169.866,89.407z"/>
		</g>
	</g>
	<g>
		<g>
			<path fill="#F4F1ED" d="M118.03,81.919c5.048,8.716,18.257,12.644,25.652,4.223c1.271-1.447-0.842-3.578-2.121-2.121
				c-6.105,6.952-16.813,3.512-20.94-3.615C119.651,78.732,117.059,80.242,118.03,81.919L118.03,81.919z"/>
		</g>
	</g>
	<g>
		<g>
			<path fill="#F4F1ED" d="M160.421,82.875c-8.389,3.844-17.553,0.624-21.964-7.396c-0.933-1.695-3.524-0.182-2.591,1.515
				c5.251,9.543,16.233,12.979,26.069,8.472C163.692,84.661,162.166,82.076,160.421,82.875L160.421,82.875z"/>
		</g>
	</g>
	<g>
		<g>
			<path fill="#F4F1ED" d="M116.504,116.271c8.705-0.146,18.426-4.005,18.805-13.944c0.074-1.936-2.926-1.928-3,0
				c-0.312,8.192-8.882,10.828-15.805,10.944C114.572,113.303,114.569,116.303,116.504,116.271L116.504,116.271z"/>
		</g>
	</g>
	<g>
		<g>
			<path fill="#F4F1ED" d="M149.264,141.473c-4.877,6.032-5.705,14.141,0,19.89c1.364,1.375,3.485-0.747,2.121-2.121
				c-4.483-4.518-3.797-10.949,0-15.647C152.59,142.104,150.48,139.968,149.264,141.473L149.264,141.473z"/>
		</g>
	</g>
	<g>
		<g>
			<path fill="#F4F1ED" d="M144.766,130.123c0.3,10.436,8.089,19.733,18.834,20.093c1.936,0.064,1.929-2.936,0-3
				c-9.088-0.304-15.582-8.325-15.834-17.093C147.71,128.192,144.71,128.188,144.766,130.123L144.766,130.123z"/>
		</g>
	</g>
	<g>
		<g>
			<path fill="#F4F1ED" d="M156.901,124.946c-5.75,5.171-17.552,5.171-23.302,0c-1.434-1.29-3.562,0.825-2.121,2.121
				c7.023,6.317,20.521,6.317,27.544,0C160.463,125.771,158.334,123.656,156.901,124.946L156.901,124.946z"/>
		</g>
	</g>
</g>
<g>
	<g>
		<g>
			<path fill="#F4F1ED" d="M792.494,66.244c0.337,5.83,7.497,7.376,12.223,6.888c7.337-0.758,11.615-6.568,11.195-13.735
				c-0.112-1.922-3.113-1.934-3,0c0.329,5.611-2.379,9.607-7.962,10.695c-2.753,0.537-9.233-0.008-9.456-3.848
				C795.383,64.321,792.382,64.311,792.494,66.244L792.494,66.244z"/>
		</g>
	</g>
	<g>
		<g>
			<path fill="#F4F1ED" d="M848.361,100.071c-0.31-7.741-4.65-14.833-10.974-19.248c0.23,0.565,0.46,1.129,0.689,1.694
				c1.959-7.281-4.802-14.977-9.81-19.135c-3.271-2.716-7.362-4.487-11.531-5.22c-2.447-0.43-1.025,0.196-1.92-1.946
				c-0.938-2.246-2.404-4.125-4.155-5.783c-6.268-5.938-17.12-5.08-23.408,0.205c-2.692,2.263-4.163,3.664-4.163,6.99
				c0,27.382,0,54.764,0,82.147c0,5.683,0,11.366,0,17.05c0,5.237,6.668,8.101,10.823,9.089c3.468,0.825,6.865,0.027,9.991-1.501
				c1.669-0.816,1.229-1.65,2.801-1.333c1.231,0.249,2.501,0.301,3.752,0.329c7.599,0.169,14.646-3.727,19.226-9.628
				c1.877-2.418,3.175-5.613,3.451-8.673c0.14-1.536,0.178-3.049-0.062-4.579c-0.07-0.546-0.169-1.086-0.295-1.622
				c-0.489-2.331-0.094,0.188-1.705-0.229c11.779,3.038,17.683-17.482,9.439-24.013c-0.102,0.785-0.202,1.57-0.304,2.355
				C846.191,114.176,848.141,106.052,848.361,100.071c0.071-1.936-2.929-1.929-3,0c-0.183,4.963-1.66,11.979-6.667,14.361
				c-0.814,0.387-1.031,1.779-0.304,2.355c6.037,4.783,2.193,21.247-6.787,18.931c-0.475-0.123-1.133-0.024-1.459,0.386
				c-1.62,2.031,0.148,5.374,0.093,7.864c-0.188,8.419-8.204,14.368-15.712,16.06c-2.255,0.509-4.742,0.511-7.022,0.16
				c-0.848-0.131-1.801-0.71-2.629-0.225c-4.081,2.391-6.635,3.898-11.538,2.731c-2.397-0.57-7.246-2.817-7.246-5.869
				c0-9.317,0-18.636,0-27.953c0-15.97,0-31.94,0-47.91c0-6.056,0-12.113,0-18.169c0-1.721,0-3.443,0-5.165
				c0-1.091,0.487-2.297-0.156-1.383c7.325-10.411,22.984-8.542,27.032,3.55c0.15,0.45,0.53,0.978,1.048,1.047
				c5.81,0.783,10.41,2.889,14.752,6.983c3.191,3.01,7.732,9.013,6.419,13.894c-0.186,0.69,0.129,1.303,0.689,1.694
				c5.418,3.782,9.223,10.042,9.487,16.657C845.438,101.999,848.438,102.007,848.361,100.071z"/>
		</g>
	</g>
	<g>
		<g>
			<path fill="#F4F1ED" d="M783.09,90.364c0.312,11.622,9.292,20.602,20.914,20.914c1.936,0.052,1.931-2.948,0-3
				c-9.973-0.269-17.646-7.942-17.914-17.914C786.038,88.434,783.038,88.429,783.09,90.364L783.09,90.364z"/>
		</g>
	</g>
	<g>
		<g>
			<path fill="#F4F1ED" d="M835.336,81.362c-4.128,7.127-14.836,10.567-20.941,3.615c-1.279-1.457-3.393,0.674-2.121,2.121
				c7.396,8.421,20.604,4.494,25.652-4.223C838.897,81.199,836.305,79.689,835.336,81.362L835.336,81.362z"/>
		</g>
	</g>
	<g>
		<g>
			<path fill="#F4F1ED" d="M794.021,86.423c9.836,4.506,20.818,1.071,26.069-8.472c0.934-1.696-1.657-3.209-2.59-1.515
				c-4.413,8.02-13.576,11.24-21.966,7.396C793.789,83.033,792.264,85.618,794.021,86.423L794.021,86.423z"/>
		</g>
	</g>
	<g>
		<g>
			<path fill="#F4F1ED" d="M839.451,114.228c-6.923-0.116-15.492-2.752-15.805-10.944c-0.073-1.928-3.074-1.936-3,0
				c0.379,9.939,10.1,13.798,18.805,13.944C841.387,117.26,841.384,114.26,839.451,114.228L839.451,114.228z"/>
		</g>
	</g>
	<g>
		<g>
			<path fill="#F4F1ED" d="M804.57,144.551c3.798,4.698,4.483,11.13,0,15.647c-1.363,1.374,0.757,3.496,2.121,2.121
				c5.705-5.749,4.877-13.857,0-19.89C805.475,140.925,803.366,143.062,804.57,144.551L804.57,144.551z"/>
		</g>
	</g>
	<g>
		<g>
			<path fill="#F4F1ED" d="M808.189,131.08c-0.252,8.768-6.745,16.789-15.834,17.093c-1.93,0.064-1.936,3.064,0,3
				c10.745-0.359,18.534-9.656,18.834-20.093C811.245,129.145,808.245,129.149,808.189,131.08L808.189,131.08z"/>
		</g>
	</g>
	<g>
		<g>
			<path fill="#F4F1ED" d="M796.934,128.024c7.023,6.316,20.521,6.317,27.544,0c1.441-1.296-0.688-3.411-2.121-2.121
				c-5.75,5.171-17.552,5.171-23.302,0C797.621,124.613,795.492,126.729,796.934,128.024L796.934,128.024z"/>
		</g>
	</g>
</g>
</svg>
