<?xml version="1.0" encoding="utf-8"?>
<!-- Generator: Adobe Illustrator 16.0.0, SVG Export Plug-In . SVG Version: 6.00 Build 0)  -->
<!DOCTYPE svg PUBLIC "-//W3C//DTD SVG 1.1//EN" "http://www.w3.org/Graphics/SVG/1.1/DTD/svg11.dtd">
<svg version="1.1" id="Layer_1" xmlns="http://www.w3.org/2000/svg" xmlns:xlink="http://www.w3.org/1999/xlink" x="0px" y="0px"
	 width="58px" height="58px" viewBox="0 0 58 58" enable-background="new 0 0 58 58" xml:space="preserve">
<circle fill="#FF7946" cx="29" cy="29" r="29"/>
<g>
	<path fill="#FFFFFF" d="M27.85,36.908c-5.005-0.441-7.622-4.646-7.622-9.952c0-5.062,3.432-10.683,9.023-10.683
		c5.505,0,8.522,4.362,8.522,9.982c0,4.161-2.273,8.651-6.149,10.167l-1.559,0.145c0.887,0.814,1.573,1.357,2.174,1.785
		c0.715,0.516,1.444,1.016,2.503,1.016c0.557,0,1.215-0.143,1.987-0.486c0.372,0.258,0.572,0.672,0.672,1.201
		c-0.758,0.758-2.517,1.645-3.704,1.645c-1.23,0-2.316-0.773-3.147-1.574C29.465,39.111,28.822,38.41,27.85,36.908z M32.739,33.635
		c0.387-0.373,2.403-2.547,2.403-6.151c0-4.333-1.96-8.867-6.708-8.867c-0.915,0-2.603,0.472-3.16,0.958
		c-0.387,0.357-2.403,2.588-2.403,6.192c0,4.592,2.103,8.838,6.678,8.838C30.451,34.605,32.182,34.162,32.739,33.635z"/>
</g>
</svg>
